<?xml version="1.0" encoding="UTF-8" standalone="no"?>
<!-- Created with Inkscape (http://www.inkscape.org/) -->

<svg
   width="139.74373mm"
   height="47.367981mm"
   viewBox="0 0 139.74373 47.367981"
   version="1.1"
   id="svg1"
   xml:space="preserve"
   inkscape:version="1.4.2 (f4327f4, 2025-05-13)"
   sodipodi:docname="minktece_logo.svg"
   xmlns:inkscape="http://www.inkscape.org/namespaces/inkscape"
   xmlns:sodipodi="http://sodipodi.sourceforge.net/DTD/sodipodi-0.dtd"
   xmlns="http://www.w3.org/2000/svg"
   xmlns:svg="http://www.w3.org/2000/svg"><sodipodi:namedview
     id="namedview1"
     pagecolor="#ffffff"
     bordercolor="#000000"
     borderopacity="0.25"
     inkscape:showpageshadow="2"
     inkscape:pageopacity="0.0"
     inkscape:pagecheckerboard="0"
     inkscape:deskcolor="#d1d1d1"
     inkscape:document-units="mm"
     inkscape:zoom="1.0333895"
     inkscape:cx="156.28184"
     inkscape:cy="-78.38284"
     inkscape:window-width="2560"
     inkscape:window-height="1369"
     inkscape:window-x="-8"
     inkscape:window-y="-8"
     inkscape:window-maximized="1"
     inkscape:current-layer="layer1-5" /><defs
     id="defs1"><clipPath
       id="clipPath670">
      <path
   d="M 372.378,404.809 H 535.5 V 564.832 H 372.378 Z"
   transform="matrix(2.7106647,0,0,-2.7103143,-1353.0285,1316.1464)"
   id="path670" />
    </clipPath><clipPath
       id="clipPath672">
      <path
   d="M 372.378,404.809 H 535.5 V 564.832 H 372.378 Z"
   transform="matrix(2.7106647,0,0,-2.7103143,-1320.8459,1325.8896)"
   id="path672" />
    </clipPath><clipPath
       id="clipPath674">
      <path
   d="M 372.378,404.809 H 535.5 V 564.832 H 372.378 Z"
   transform="matrix(2.7106647,0,0,-2.7103143,-1281.9545,1337.3202)"
   id="path674" />
    </clipPath><clipPath
       id="clipPath676">
      <path
   d="M 372.378,404.809 H 535.5 V 564.832 H 372.378 Z"
   transform="matrix(2.7106647,0,0,-2.7103143,-1371.2171,1287.5693)"
   id="path676" />
    </clipPath><clipPath
       id="clipPath678">
      <path
   d="M 372.378,404.809 H 535.5 V 564.832 H 372.378 Z"
   transform="matrix(2.7106647,0,0,-2.7103143,-1234.3156,1408.9814)"
   id="path678" />
    </clipPath><clipPath
       id="clipPath680">
      <path
   d="M 372.378,404.809 H 535.5 V 564.832 H 372.378 Z"
   transform="matrix(2.7106647,0,0,-2.7103143,-1202.6067,1420.7714)"
   id="path680" />
    </clipPath><clipPath
       id="clipPath682">
      <path
   d="M 372.378,404.809 H 535.5 V 564.832 H 372.378 Z"
   transform="matrix(2.7106647,0,0,-2.7103143,-1236.3919,1410.3095)"
   id="path682" />
    </clipPath><clipPath
       id="clipPath684">
      <path
   d="M 372.378,404.809 H 535.5 V 564.832 H 372.378 Z"
   transform="matrix(2.7106647,0,0,-2.7103143,-1235.8381,1410.2167)"
   id="path684" />
    </clipPath><clipPath
       id="clipPath686">
      <path
   d="M 372.378,404.809 H 535.5 V 564.832 H 372.378 Z"
   transform="matrix(2.7106647,0,0,-2.7103143,-1236.3919,1410.3095)"
   id="path686" />
    </clipPath><clipPath
       id="clipPath688">
      <path
   d="M 372.378,404.809 H 535.5 V 564.832 H 372.378 Z"
   transform="matrix(2.7106647,0,0,-2.7103143,-1234.4427,1408.3906)"
   id="path688" />
    </clipPath><clipPath
       id="clipPath690">
      <path
   d="M 372.378,404.809 H 535.5 V 564.832 H 372.378 Z"
   transform="matrix(2.7106647,0,0,-2.7103143,-1185.1398,1444.1357)"
   id="path690" />
    </clipPath><clipPath
       id="clipPath692">
      <path
   d="M 372.378,404.809 H 535.5 V 564.832 H 372.378 Z"
   transform="matrix(2.7106647,0,0,-2.7103143,-1206.7679,1414.0282)"
   id="path692" />
    </clipPath><clipPath
       id="clipPath694">
      <path
   d="M 372.378,404.809 H 535.5 V 564.832 H 372.378 Z"
   transform="matrix(2.7106647,0,0,-2.7103143,-1201.5921,1420.5224)"
   id="path694" />
    </clipPath><clipPath
       id="clipPath696">
      <path
   d="M 372.378,404.809 H 535.5 V 564.832 H 372.378 Z"
   transform="matrix(2.7106647,0,0,-2.7103143,-1207.7512,1418.0927)"
   id="path696" />
    </clipPath><clipPath
       id="clipPath698">
      <path
   d="M 372.378,404.809 H 535.5 V 564.832 H 372.378 Z"
   transform="matrix(2.7106647,0,0,-2.7103143,-1208.8507,1421.4335)"
   id="path698" />
    </clipPath><clipPath
       id="clipPath700">
      <path
   d="M 372.378,404.809 H 535.5 V 564.832 H 372.378 Z"
   transform="matrix(2.7106647,0,0,-2.7103143,-1219.638,1354.8349)"
   id="path700" />
    </clipPath><clipPath
       id="clipPath702">
      <path
   d="M 372.378,404.809 H 535.5 V 564.832 H 372.378 Z"
   transform="matrix(2.7106647,0,0,-2.7103143,-1153.8225,1412.3134)"
   id="path702" />
    </clipPath><clipPath
       id="clipPath704">
      <path
   d="M 372.378,404.809 H 535.5 V 564.832 H 372.378 Z"
   transform="matrix(2.7106647,0,0,-2.7103143,-1153.8225,1412.3134)"
   id="path704" />
    </clipPath><clipPath
       id="clipPath706">
      <path
   d="M 372.378,404.809 H 535.5 V 564.832 H 372.378 Z"
   transform="matrix(2.7106647,0,0,-2.7103143,-1190.6448,1225.1816)"
   id="path706" />
    </clipPath><clipPath
       id="clipPath708">
      <path
   d="M 372.378,404.809 H 535.5 V 564.832 H 372.378 Z"
   transform="matrix(2.7106647,0,0,-2.7103143,-1214.2629,1332.7704)"
   id="path708" />
    </clipPath><clipPath
       id="clipPath710">
      <path
   d="M 372.378,404.809 H 535.5 V 564.832 H 372.378 Z"
   transform="matrix(2.7106647,0,0,-2.7103143,-1219.6388,1354.8349)"
   id="path710" />
    </clipPath><clipPath
       id="clipPath585">
      <path
   d="M 550.377,405.3 H 709.802 V 564.342 H 550.377 Z"
   transform="translate(-673.66969,-485.60181)"
   id="path585" />
    </clipPath><clipPath
       id="clipPath587">
      <path
   d="M 550.377,405.3 H 709.802 V 564.342 H 550.377 Z"
   transform="translate(-661.86829,-489.17471)"
   id="path587" />
    </clipPath><clipPath
       id="clipPath589">
      <path
   d="M 550.377,405.3 H 709.802 V 564.342 H 550.377 Z"
   transform="translate(-647.60682,-493.36631)"
   id="path589" />
    </clipPath><clipPath
       id="clipPath591">
      <path
   d="M 550.377,405.3 H 709.802 V 564.342 H 550.377 Z"
   transform="translate(-680.33952,-475.12261)"
   id="path591" />
    </clipPath><clipPath
       id="clipPath593">
      <path
   d="M 550.377,405.3 H 709.802 V 564.342 H 550.377 Z"
   transform="translate(-630.13759,-519.64422)"
   id="path593" />
    </clipPath><clipPath
       id="clipPath595">
      <path
   d="M 550.377,405.3 H 709.802 V 564.342 H 550.377 Z"
   transform="translate(-618.50982,-523.96801)"
   id="path595" />
    </clipPath><clipPath
       id="clipPath597">
      <path
   d="M 550.377,405.3 H 709.802 V 564.342 H 550.377 Z"
   transform="translate(-630.89892,-520.13151)"
   id="path597" />
    </clipPath><clipPath
       id="clipPath599">
      <path
   d="M 550.377,405.3 H 709.802 V 564.342 H 550.377 Z"
   transform="translate(-630.69589,-520.09752)"
   id="path599" />
    </clipPath><clipPath
       id="clipPath601">
      <path
   d="M 550.377,405.3 H 709.802 V 564.342 H 550.377 Z"
   transform="translate(-630.89892,-520.13151)"
   id="path601" />
    </clipPath><clipPath
       id="clipPath603">
      <path
   d="M 550.377,405.3 H 709.802 V 564.342 H 550.377 Z"
   transform="translate(-630.18409,-519.42751)"
   id="path603" />
    </clipPath><clipPath
       id="clipPath605">
      <path
   d="M 550.377,405.3 H 709.802 V 564.342 H 550.377 Z"
   transform="translate(-612.10474,-532.53531)"
   id="path605" />
    </clipPath><clipPath
       id="clipPath607">
      <path
   d="M 550.377,405.3 H 709.802 V 564.342 H 550.377 Z"
   transform="translate(-620.03569,-521.49492)"
   id="path607" />
    </clipPath><clipPath
       id="clipPath609">
      <path
   d="M 550.377,405.3 H 709.802 V 564.342 H 550.377 Z"
   transform="translate(-618.13782,-523.87632)"
   id="path609" />
    </clipPath><clipPath
       id="clipPath611">
      <path
   d="M 550.377,405.3 H 709.802 V 564.342 H 550.377 Z"
   transform="translate(-620.39629,-522.98571)"
   id="path611" />
    </clipPath><clipPath
       id="clipPath613">
      <path
   d="M 550.377,405.3 H 709.802 V 564.342 H 550.377 Z"
   transform="translate(-620.79964,-524.21082)"
   id="path613" />
    </clipPath><clipPath
       id="clipPath615">
      <path
   d="M 550.377,405.3 H 709.802 V 564.342 H 550.377 Z"
   transform="translate(-624.75522,-499.78891)"
   id="path615" />
    </clipPath><clipPath
       id="clipPath617">
      <path
   d="M 550.377,405.3 H 709.802 V 564.342 H 550.377 Z"
   transform="translate(-600.62059,-520.86642)"
   id="path617" />
    </clipPath><clipPath
       id="clipPath619">
      <path
   d="M 550.377,405.3 H 709.802 V 564.342 H 550.377 Z"
   transform="translate(-600.62059,-520.86642)"
   id="path619" />
    </clipPath><clipPath
       id="clipPath621">
      <path
   d="M 550.377,405.3 H 709.802 V 564.342 H 550.377 Z"
   transform="translate(-614.12344,-452.24451)"
   id="path621" />
    </clipPath><clipPath
       id="clipPath623">
      <path
   d="M 550.377,405.3 H 709.802 V 564.342 H 550.377 Z"
   transform="translate(-622.78422,-491.69781)"
   id="path623" />
    </clipPath><clipPath
       id="clipPath625">
      <path
   d="M 550.377,405.3 H 709.802 V 564.342 H 550.377 Z"
   transform="translate(-624.75559,-499.78891)"
   id="path625" />
    </clipPath><clipPath
       id="clipPath577">
      <path
   d="M 739.523,425.543 H 878.36 V 561.739 H 739.523 Z"
   transform="matrix(1.8460464,0,0,-1.8458334,-1425.622,858.82829)"
   id="path577" />
    </clipPath><clipPath
       id="clipPath814">
      <path
   d="M 401.032,286.708 H 506.846 V 390.497 H 401.032 Z"
   transform="translate(-486.56531,-334.15891)"
   id="path814" />
    </clipPath><clipPath
       id="clipPath816">
      <path
   d="M 401.032,286.708 H 506.846 V 390.497 H 401.032 Z"
   transform="translate(-491.59339,-326.25911)"
   id="path816" />
    </clipPath><clipPath
       id="clipPath818">
      <path
   d="M 401.032,286.708 H 506.846 V 390.497 H 401.032 Z"
   transform="translate(-452.98061,-304.96721)"
   id="path818" />
    </clipPath><clipPath
       id="clipPath820">
      <path
   d="M 401.032,286.708 H 506.846 V 390.497 H 401.032 Z"
   transform="translate(-449.69111,-344.85401)"
   id="path820" />
    </clipPath><clipPath
       id="clipPath822">
      <path
   d="M 401.032,286.708 H 506.846 V 390.497 H 401.032 Z"
   transform="translate(-445.67869,-363.56231)"
   id="path822" />
    </clipPath><clipPath
       id="clipPath804">
      <path
   d="M 578.533,286.209 H 684.347 V 389.998 H 578.533 Z"
   transform="translate(-662.25064,-333.65891)"
   id="path804" />
    </clipPath><clipPath
       id="clipPath806">
      <path
   d="M 578.533,286.209 H 684.347 V 389.998 H 578.533 Z"
   transform="translate(-667.27864,-325.75911)"
   id="path806" />
    </clipPath><clipPath
       id="clipPath808">
      <path
   d="M 578.533,286.209 H 684.347 V 389.998 H 578.533 Z"
   transform="translate(-628.66602,-304.46721)"
   id="path808" />
    </clipPath><clipPath
       id="clipPath810">
      <path
   d="M 578.533,286.209 H 684.347 V 389.998 H 578.533 Z"
   transform="translate(-625.37644,-344.35401)"
   id="path810" />
    </clipPath><clipPath
       id="clipPath812">
      <path
   d="M 578.533,286.209 H 684.347 V 389.998 H 578.533 Z"
   transform="translate(-621.36402,-363.06231)"
   id="path812" />
    </clipPath><clipPath
       id="clipPath570">
      <path
   d="M 756.534,286.708 H 861.348 V 389.696 H 756.534 Z"
   transform="matrix(1.1833042,0,0,-1.1812439,-926.26471,375.41175)"
   id="path570" />
    </clipPath><clipPath
       id="clipPath838">
      <path
   d="m 418.722,201.889 h 70.433 v 69.085 h -70.433 z"
   transform="translate(-467.30561,-235.37901)"
   id="path838" />
    </clipPath><clipPath
       id="clipPath840">
      <path
   d="m 418.722,201.889 h 70.433 v 69.085 h -70.433 z"
   transform="translate(-469.34951,-232.16781)"
   id="path840" />
    </clipPath><clipPath
       id="clipPath842">
      <path
   d="m 418.722,201.889 h 70.433 v 69.085 h -70.433 z"
   transform="translate(-453.65419,-223.51331)"
   id="path842" />
    </clipPath><clipPath
       id="clipPath844">
      <path
   d="m 418.722,201.889 h 70.433 v 69.085 h -70.433 z"
   transform="translate(-452.31724,-239.7261)"
   id="path844" />
    </clipPath><clipPath
       id="clipPath830">
      <path
   d="m 596.223,201.389 h 70.434 v 69.086 h -70.434 z"
   transform="translate(-643.34314,-234.879)"
   id="path830" />
    </clipPath><clipPath
       id="clipPath832">
      <path
   d="m 596.223,201.389 h 70.434 v 69.086 h -70.434 z"
   transform="translate(-645.38674,-231.6678)"
   id="path832" />
    </clipPath><clipPath
       id="clipPath834">
      <path
   d="m 596.223,201.389 h 70.434 v 69.086 h -70.434 z"
   transform="translate(-629.69179,-223.01331)"
   id="path834" />
    </clipPath><clipPath
       id="clipPath836">
      <path
   d="m 596.223,201.389 h 70.434 v 69.086 h -70.434 z"
   transform="translate(-628.35469,-239.22611)"
   id="path836" />
    </clipPath><linearGradient
       x1="0"
       y1="0"
       x2="1"
       y2="0"
       gradientUnits="userSpaceOnUse"
       gradientTransform="matrix(0,4.4715523,-4.4715523,0,2542.125,237.16477)"
       spreadMethod="pad"
       id="linearGradient1538">
      <stop
   style="stop-opacity:1;stop-color:#1b2046 ;"
   offset="0"
   id="stop1535" />
      <stop
   style="stop-opacity:1;stop-color:#1b2046 ;"
   offset="0.0441586"
   id="stop1536" />
      <stop
   style="stop-opacity:1;stop-color:#0385ad ;"
   offset="0.990782"
   id="stop1537" />
      <stop
   style="stop-opacity:1;stop-color:#0385ad ;"
   offset="1"
   id="stop1538" />
    </linearGradient><linearGradient
       x1="0"
       y1="0"
       x2="1"
       y2="0"
       gradientUnits="userSpaceOnUse"
       gradientTransform="matrix(1.8885202,-5.1615761,5.0358598,1.4369407,2538.9906,241.56126)"
       spreadMethod="pad"
       id="linearGradient1542">
      <stop
   style="stop-opacity:1;stop-color:#1b2046 ;"
   offset="0"
   id="stop1539" />
      <stop
   style="stop-opacity:1;stop-color:#1b2046 ;"
   offset="0.0441586"
   id="stop1540" />
      <stop
   style="stop-opacity:1;stop-color:#0385ad ;"
   offset="0.990782"
   id="stop1541" />
      <stop
   style="stop-opacity:1;stop-color:#0385ad ;"
   offset="1"
   id="stop1542" />
    </linearGradient><clipPath
       id="clipPath1544">
      <path
   d="M 384.969,427.097 H 656.201 V 536.008 H 384.969 Z"
   transform="translate(-459.82319,-495.75621)"
   id="path1544" />
    </clipPath><clipPath
       id="clipPath1546">
      <path
   d="M 384.969,427.097 H 656.201 V 536.008 H 384.969 Z"
   transform="translate(-459.82319,-504.53112)"
   id="path1546" />
    </clipPath><clipPath
       id="clipPath1548">
      <path
   d="M 384.969,427.097 H 656.201 V 536.008 H 384.969 Z"
   transform="translate(-510.85454,-474.06001)"
   id="path1548" />
    </clipPath><clipPath
       id="clipPath1550">
      <path
   d="M 384.969,427.097 H 656.201 V 536.008 H 384.969 Z"
   transform="translate(-481.58541,-495.36731)"
   id="path1550" />
    </clipPath><linearGradient
       x1="0"
       y1="0"
       x2="1"
       y2="0"
       gradientUnits="userSpaceOnUse"
       gradientTransform="matrix(1.7639105,4.9317544,4.8151811,-1.332438,2534.9295,237.39599)"
       spreadMethod="pad"
       id="linearGradient1553">
      <stop
   style="stop-opacity:1;stop-color:#1b2046 ;"
   offset="0"
   id="stop1550" />
      <stop
   style="stop-opacity:1;stop-color:#1b2046 ;"
   offset="0.0441586"
   id="stop1551" />
      <stop
   style="stop-opacity:1;stop-color:#0385ad ;"
   offset="0.990782"
   id="stop1552" />
      <stop
   style="stop-opacity:1;stop-color:#0385ad ;"
   offset="1"
   id="stop1553" />
    </linearGradient><linearGradient
       x1="0"
       y1="0"
       x2="1"
       y2="0"
       gradientUnits="userSpaceOnUse"
       gradientTransform="matrix(0,-7.3233368,7.3233368,0,2533.0687,246.98936)"
       spreadMethod="pad"
       id="linearGradient1557">
      <stop
   style="stop-opacity:1;stop-color:#1b2046 ;"
   offset="0"
   id="stop1554" />
      <stop
   style="stop-opacity:1;stop-color:#1b2046 ;"
   offset="0.0441586"
   id="stop1555" />
      <stop
   style="stop-opacity:1;stop-color:#0385ad ;"
   offset="0.990782"
   id="stop1556" />
      <stop
   style="stop-opacity:1;stop-color:#0385ad ;"
   offset="1"
   id="stop1557" />
    </linearGradient><clipPath
       id="clipPath1559">
      <path
   d="M 384.969,427.097 H 656.201 V 536.008 H 384.969 Z"
   transform="translate(-469.90664,-460.14441)"
   id="path1559" />
    </clipPath><clipPath
       id="clipPath1561">
      <path
   d="M 384.969,427.097 H 656.201 V 536.008 H 384.969 Z"
   transform="translate(-434.01171,-466.51181)"
   id="path1561" />
    </clipPath><clipPath
       id="clipPath1563">
      <path
   d="M 384.969,427.097 H 656.201 V 536.008 H 384.969 Z"
   transform="translate(-447.58889,-466.93291)"
   id="path1563" />
    </clipPath><clipPath
       id="clipPath1565">
      <path
   d="M 384.969,427.097 H 656.201 V 536.008 H 384.969 Z"
   transform="translate(-455.88224,-461.60451)"
   id="path1565" />
    </clipPath><clipPath
       id="clipPath1567">
      <path
   d="M 384.969,427.097 H 656.201 V 536.008 H 384.969 Z"
   transform="translate(-463.08029,-466.39171)"
   id="path1567" />
    </clipPath><clipPath
       id="clipPath1569">
      <path
   d="M 384.969,427.097 H 656.201 V 536.008 H 384.969 Z"
   transform="translate(-466.75919,-460.13681)"
   id="path1569" />
    </clipPath><clipPath
       id="clipPath1571">
      <path
   d="M 384.969,427.097 H 656.201 V 536.008 H 384.969 Z"
   transform="translate(-521.97651,-460.14441)"
   id="path1571" />
    </clipPath><clipPath
       id="clipPath1573">
      <path
   d="M 384.969,427.097 H 656.201 V 536.008 H 384.969 Z"
   transform="translate(-483.40994,-461.63741)"
   id="path1573" />
    </clipPath><clipPath
       id="clipPath1575">
      <path
   d="M 384.969,427.097 H 656.201 V 536.008 H 384.969 Z"
   transform="translate(-491.83514,-467.11361)"
   id="path1575" />
    </clipPath><clipPath
       id="clipPath1577">
      <path
   d="M 384.969,427.097 H 656.201 V 536.008 H 384.969 Z"
   transform="translate(-497.66901,-460.16721)"
   id="path1577" />
    </clipPath><clipPath
       id="clipPath1579">
      <path
   d="M 384.969,427.097 H 656.201 V 536.008 H 384.969 Z"
   transform="translate(-504.21291,-468.06931)"
   id="path1579" />
    </clipPath><clipPath
       id="clipPath1581">
      <path
   d="M 384.969,427.097 H 656.201 V 536.008 H 384.969 Z"
   transform="translate(-501.98324,-458.60531)"
   id="path1581" />
    </clipPath><clipPath
       id="clipPath1583">
      <path
   d="M 384.969,427.097 H 656.201 V 536.008 H 384.969 Z"
   transform="translate(-506.97524,-466.89901)"
   id="path1583" />
    </clipPath><clipPath
       id="clipPath1585">
      <path
   d="M 384.969,427.097 H 656.201 V 536.008 H 384.969 Z"
   transform="translate(-514.96034,-463.65801)"
   id="path1585" />
    </clipPath><clipPath
       id="clipPath1587">
      <path
   d="M 384.969,427.097 H 656.201 V 536.008 H 384.969 Z"
   transform="translate(-565.89614,-460.14441)"
   id="path1587" />
    </clipPath><clipPath
       id="clipPath1589">
      <path
   d="M 384.969,427.097 H 656.201 V 536.008 H 384.969 Z"
   transform="translate(-551.16014,-469.54681)"
   id="path1589" />
    </clipPath><clipPath
       id="clipPath1591">
      <path
   d="M 384.969,427.097 H 656.201 V 536.008 H 384.969 Z"
   transform="translate(-535.47711,-461.65061)"
   id="path1591" />
    </clipPath><clipPath
       id="clipPath1593">
      <path
   d="M 384.969,427.097 H 656.201 V 536.008 H 384.969 Z"
   transform="translate(-545.65499,-463.88121)"
   id="path1593" />
    </clipPath><clipPath
       id="clipPath1595">
      <path
   d="M 384.969,427.097 H 656.201 V 536.008 H 384.969 Z"
   transform="translate(-549.92271,-458.62031)"
   id="path1595" />
    </clipPath><clipPath
       id="clipPath1597">
      <path
   d="M 384.969,427.097 H 656.201 V 536.008 H 384.969 Z"
   transform="translate(-554.00361,-458.62031)"
   id="path1597" />
    </clipPath><clipPath
       id="clipPath1599">
      <path
   d="M 384.969,427.097 H 656.201 V 536.008 H 384.969 Z"
   transform="translate(-563.68814,-463.64191)"
   id="path1599" />
    </clipPath><clipPath
       id="clipPath1601">
      <path
   d="M 384.969,427.097 H 656.201 V 536.008 H 384.969 Z"
   transform="translate(-563.92874,-480.11881)"
   id="path1601" />
    </clipPath><clipPath
       id="clipPath1603">
      <path
   d="M 384.969,427.097 H 656.201 V 536.008 H 384.969 Z"
   transform="translate(-541.72079,-487.11161)"
   id="path1603" />
    </clipPath><clipPath
       id="clipPath1605">
      <path
   d="M 384.969,427.097 H 656.201 V 536.008 H 384.969 Z"
   transform="translate(-532.40489,-504.53142)"
   id="path1605" />
    </clipPath><clipPath
       id="clipPath1607">
      <path
   d="M 384.969,427.097 H 656.201 V 536.008 H 384.969 Z"
   transform="translate(-624.01762,-480.23321)"
   id="path1607" />
    </clipPath><clipPath
       id="clipPath1609">
      <path
   d="M 384.969,427.097 H 656.201 V 536.008 H 384.969 Z"
   transform="translate(-617.43089,-482.22741)"
   id="path1609" />
    </clipPath><clipPath
       id="clipPath1611">
      <path
   d="M 384.969,427.097 H 656.201 V 536.008 H 384.969 Z"
   transform="translate(-609.47114,-484.56681)"
   id="path1611" />
    </clipPath><clipPath
       id="clipPath1613">
      <path
   d="M 384.969,427.097 H 656.201 V 536.008 H 384.969 Z"
   transform="translate(-627.74069,-474.38421)"
   id="path1613" />
    </clipPath><clipPath
       id="clipPath1615">
      <path
   d="M 384.969,427.097 H 656.201 V 536.008 H 384.969 Z"
   transform="translate(-599.72084,-499.23361)"
   id="path1615" />
    </clipPath><clipPath
       id="clipPath1617">
      <path
   d="M 384.969,427.097 H 656.201 V 536.008 H 384.969 Z"
   transform="translate(-593.23101,-501.64692)"
   id="path1617" />
    </clipPath><clipPath
       id="clipPath1619">
      <path
   d="M 384.969,427.097 H 656.201 V 536.008 H 384.969 Z"
   transform="translate(-600.14594,-499.50571)"
   id="path1619" />
    </clipPath><clipPath
       id="clipPath1621">
      <path
   d="M 384.969,427.097 H 656.201 V 536.008 H 384.969 Z"
   transform="translate(-600.03232,-499.48671)"
   id="path1621" />
    </clipPath><clipPath
       id="clipPath1623">
      <path
   d="M 384.969,427.097 H 656.201 V 536.008 H 384.969 Z"
   transform="translate(-600.14594,-499.50571)"
   id="path1623" />
    </clipPath><clipPath
       id="clipPath1625">
      <path
   d="M 384.969,427.097 H 656.201 V 536.008 H 384.969 Z"
   transform="translate(-599.74694,-499.11271)"
   id="path1625" />
    </clipPath><clipPath
       id="clipPath1627">
      <path
   d="M 384.969,427.097 H 656.201 V 536.008 H 384.969 Z"
   transform="translate(-589.65584,-506.42871)"
   id="path1627" />
    </clipPath><clipPath
       id="clipPath1629">
      <path
   d="M 384.969,427.097 H 656.201 V 536.008 H 384.969 Z"
   transform="translate(-594.08271,-500.26671)"
   id="path1629" />
    </clipPath><clipPath
       id="clipPath1631">
      <path
   d="M 384.969,427.097 H 656.201 V 536.008 H 384.969 Z"
   transform="translate(-593.02319,-501.59581)"
   id="path1631" />
    </clipPath><clipPath
       id="clipPath1633">
      <path
   d="M 384.969,427.097 H 656.201 V 536.008 H 384.969 Z"
   transform="translate(-594.28394,-501.09861)"
   id="path1633" />
    </clipPath><clipPath
       id="clipPath1635">
      <path
   d="M 384.969,427.097 H 656.201 V 536.008 H 384.969 Z"
   transform="translate(-594.50879,-501.78241)"
   id="path1635" />
    </clipPath><clipPath
       id="clipPath1637">
      <path
   d="M 384.969,427.097 H 656.201 V 536.008 H 384.969 Z"
   transform="translate(-596.71679,-488.15151)"
   id="path1637" />
    </clipPath><clipPath
       id="clipPath1639">
      <path
   d="M 384.969,427.097 H 656.201 V 536.008 H 384.969 Z"
   transform="translate(-583.24611,-499.91581)"
   id="path1639" />
    </clipPath><clipPath
       id="clipPath1641">
      <path
   d="M 384.969,427.097 H 656.201 V 536.008 H 384.969 Z"
   transform="translate(-583.24611,-499.91581)"
   id="path1641" />
    </clipPath><clipPath
       id="clipPath1643">
      <path
   d="M 384.969,427.097 H 656.201 V 536.008 H 384.969 Z"
   transform="translate(-590.78264,-461.61541)"
   id="path1643" />
    </clipPath><clipPath
       id="clipPath1645">
      <path
   d="M 384.969,427.097 H 656.201 V 536.008 H 384.969 Z"
   transform="translate(-595.61661,-483.63561)"
   id="path1645" />
    </clipPath><clipPath
       id="clipPath1647">
      <path
   d="M 384.969,427.097 H 656.201 V 536.008 H 384.969 Z"
   transform="translate(-596.71679,-488.15151)"
   id="path1647" />
    </clipPath><linearGradient
       x1="0"
       y1="0"
       x2="1"
       y2="0"
       gradientUnits="userSpaceOnUse"
       gradientTransform="matrix(1.8885202,-5.1615761,5.0358598,1.4369407,2538.9906,241.56126)"
       spreadMethod="pad"
       id="linearGradient1657">
      <stop
   style="stop-opacity:1;stop-color:#153960 ;"
   offset="0"
   id="stop1654" />
      <stop
   style="stop-opacity:1;stop-color:#153960 ;"
   offset="0.0441586"
   id="stop1655" />
      <stop
   style="stop-opacity:1;stop-color:#0385ad ;"
   offset="0.990782"
   id="stop1656" />
      <stop
   style="stop-opacity:1;stop-color:#0385ad ;"
   offset="1"
   id="stop1657" />
    </linearGradient><linearGradient
       x1="0"
       y1="0"
       x2="1"
       y2="0"
       gradientUnits="userSpaceOnUse"
       gradientTransform="matrix(0,20.759066,20.759066,0,7311.6879,174.97497)"
       spreadMethod="pad"
       id="linearGradient1661">
      <stop
   style="stop-opacity:1;stop-color:#153960 ;"
   offset="0"
   id="stop1658" />
      <stop
   style="stop-opacity:1;stop-color:#153960 ;"
   offset="0.0441586"
   id="stop1659" />
      <stop
   style="stop-opacity:1;stop-color:#0385ad ;"
   offset="0.990782"
   id="stop1660" />
      <stop
   style="stop-opacity:1;stop-color:#0385ad ;"
   offset="1"
   id="stop1661" />
    </linearGradient><clipPath
       id="clipPath1665">
      <path
   d="m 413.48,425.262 h 38.387 v 36.214 H 413.48 Z"
   transform="translate(-432.02279,-458.47521)"
   id="path1665" />
    </clipPath><linearGradient
       x1="0"
       y1="0"
       x2="1"
       y2="0"
       gradientUnits="userSpaceOnUse"
       gradientTransform="matrix(0,4.4715523,-4.4715523,0,2516.151,314.33363)"
       spreadMethod="pad"
       id="linearGradient1427">
      <stop
   style="stop-opacity:1;stop-color:#1b2046 ;"
   offset="0"
   id="stop1424" />
      <stop
   style="stop-opacity:1;stop-color:#1b2046 ;"
   offset="0.0441586"
   id="stop1425" />
      <stop
   style="stop-opacity:1;stop-color:#0385ad ;"
   offset="0.990782"
   id="stop1426" />
      <stop
   style="stop-opacity:1;stop-color:#0385ad ;"
   offset="1"
   id="stop1427" />
    </linearGradient><linearGradient
       x1="0"
       y1="0"
       x2="1"
       y2="0"
       gradientUnits="userSpaceOnUse"
       gradientTransform="matrix(1.8885202,-5.1615761,5.0358598,1.4369407,2513.0167,318.73011)"
       spreadMethod="pad"
       id="linearGradient1431">
      <stop
   style="stop-opacity:1;stop-color:#1b2046 ;"
   offset="0"
   id="stop1428" />
      <stop
   style="stop-opacity:1;stop-color:#1b2046 ;"
   offset="0.0441586"
   id="stop1429" />
      <stop
   style="stop-opacity:1;stop-color:#0385ad ;"
   offset="0.990782"
   id="stop1430" />
      <stop
   style="stop-opacity:1;stop-color:#0385ad ;"
   offset="1"
   id="stop1431" />
    </linearGradient><clipPath
       id="clipPath1433">
      <path
   d="M 383.341,239.85 H 654.573 V 348.761 H 383.341 Z"
   transform="translate(-458.19621,-308.50991)"
   id="path1433" />
    </clipPath><clipPath
       id="clipPath1435">
      <path
   d="M 383.341,239.85 H 654.573 V 348.761 H 383.341 Z"
   transform="translate(-458.19621,-317.28481)"
   id="path1435" />
    </clipPath><clipPath
       id="clipPath1437">
      <path
   d="M 383.341,239.85 H 654.573 V 348.761 H 383.341 Z"
   transform="translate(-509.22749,-286.81361)"
   id="path1437" />
    </clipPath><clipPath
       id="clipPath1439">
      <path
   d="M 383.341,239.85 H 654.573 V 348.761 H 383.341 Z"
   transform="translate(-479.95844,-308.12091)"
   id="path1439" />
    </clipPath><linearGradient
       x1="0"
       y1="0"
       x2="1"
       y2="0"
       gradientUnits="userSpaceOnUse"
       gradientTransform="matrix(1.7639106,4.9317548,4.8151811,-1.3324381,2508.9555,314.56484)"
       spreadMethod="pad"
       id="linearGradient1442">
      <stop
   style="stop-opacity:1;stop-color:#1b2046 ;"
   offset="0"
   id="stop1439" />
      <stop
   style="stop-opacity:1;stop-color:#1b2046 ;"
   offset="0.0441586"
   id="stop1440" />
      <stop
   style="stop-opacity:1;stop-color:#0385ad ;"
   offset="0.990782"
   id="stop1441" />
      <stop
   style="stop-opacity:1;stop-color:#0385ad ;"
   offset="1"
   id="stop1442" />
    </linearGradient><linearGradient
       x1="0"
       y1="0"
       x2="1"
       y2="0"
       gradientUnits="userSpaceOnUse"
       gradientTransform="matrix(0,-7.3233368,7.3233368,0,2507.0947,324.15821)"
       spreadMethod="pad"
       id="linearGradient1446">
      <stop
   style="stop-opacity:1;stop-color:#1b2046 ;"
   offset="0"
   id="stop1443" />
      <stop
   style="stop-opacity:1;stop-color:#1b2046 ;"
   offset="0.0441586"
   id="stop1444" />
      <stop
   style="stop-opacity:1;stop-color:#0385ad ;"
   offset="0.990782"
   id="stop1445" />
      <stop
   style="stop-opacity:1;stop-color:#0385ad ;"
   offset="1"
   id="stop1446" />
    </linearGradient><clipPath
       id="clipPath1449">
      <path
   d="M 383.341,239.85 H 654.573 V 348.761 H 383.341 Z"
   transform="translate(-432.38459,-279.26541)"
   id="path1449" />
    </clipPath><clipPath
       id="clipPath1451">
      <path
   d="M 383.341,239.85 H 654.573 V 348.761 H 383.341 Z"
   transform="translate(-445.96199,-279.6864)"
   id="path1451" />
    </clipPath><clipPath
       id="clipPath1453">
      <path
   d="M 383.341,239.85 H 654.573 V 348.761 H 383.341 Z"
   transform="translate(-454.25519,-274.35821)"
   id="path1453" />
    </clipPath><clipPath
       id="clipPath1455">
      <path
   d="M 383.341,239.85 H 654.573 V 348.761 H 383.341 Z"
   transform="translate(-461.45339,-279.14541)"
   id="path1455" />
    </clipPath><clipPath
       id="clipPath1457">
      <path
   d="M 383.341,239.85 H 654.573 V 348.761 H 383.341 Z"
   transform="translate(-465.13229,-272.8905)"
   id="path1457" />
    </clipPath><clipPath
       id="clipPath1459">
      <path
   d="M 383.341,239.85 H 654.573 V 348.761 H 383.341 Z"
   transform="translate(-520.34954,-272.89811)"
   id="path1459" />
    </clipPath><clipPath
       id="clipPath1461">
      <path
   d="M 383.341,239.85 H 654.573 V 348.761 H 383.341 Z"
   transform="translate(-481.78304,-274.39101)"
   id="path1461" />
    </clipPath><clipPath
       id="clipPath1463">
      <path
   d="M 383.341,239.85 H 654.573 V 348.761 H 383.341 Z"
   transform="translate(-490.20809,-279.867)"
   id="path1463" />
    </clipPath><clipPath
       id="clipPath1465">
      <path
   d="M 383.341,239.85 H 654.573 V 348.761 H 383.341 Z"
   transform="translate(-496.04211,-272.92091)"
   id="path1465" />
    </clipPath><clipPath
       id="clipPath1467">
      <path
   d="M 383.341,239.85 H 654.573 V 348.761 H 383.341 Z"
   transform="translate(-502.58594,-280.82301)"
   id="path1467" />
    </clipPath><clipPath
       id="clipPath1469">
      <path
   d="M 383.341,239.85 H 654.573 V 348.761 H 383.341 Z"
   transform="translate(-500.35619,-271.359)"
   id="path1469" />
    </clipPath><clipPath
       id="clipPath1471">
      <path
   d="M 383.341,239.85 H 654.573 V 348.761 H 383.341 Z"
   transform="translate(-505.34819,-279.65271)"
   id="path1471" />
    </clipPath><clipPath
       id="clipPath1473">
      <path
   d="M 383.341,239.85 H 654.573 V 348.761 H 383.341 Z"
   transform="translate(-513.33344,-276.4116)"
   id="path1473" />
    </clipPath><clipPath
       id="clipPath1475">
      <path
   d="M 383.341,239.85 H 654.573 V 348.761 H 383.341 Z"
   transform="translate(-564.26924,-272.89811)"
   id="path1475" />
    </clipPath><clipPath
       id="clipPath1477">
      <path
   d="M 383.341,239.85 H 654.573 V 348.761 H 383.341 Z"
   transform="translate(-549.53309,-282.30041)"
   id="path1477" />
    </clipPath><clipPath
       id="clipPath1479">
      <path
   d="M 383.341,239.85 H 654.573 V 348.761 H 383.341 Z"
   transform="translate(-533.85014,-274.4043)"
   id="path1479" />
    </clipPath><clipPath
       id="clipPath1481">
      <path
   d="M 383.341,239.85 H 654.573 V 348.761 H 383.341 Z"
   transform="translate(-544.02809,-276.63491)"
   id="path1481" />
    </clipPath><clipPath
       id="clipPath1483">
      <path
   d="M 383.341,239.85 H 654.573 V 348.761 H 383.341 Z"
   transform="translate(-548.29581,-271.374)"
   id="path1483" />
    </clipPath><clipPath
       id="clipPath1485">
      <path
   d="M 383.341,239.85 H 654.573 V 348.761 H 383.341 Z"
   transform="translate(-552.37664,-271.374)"
   id="path1485" />
    </clipPath><clipPath
       id="clipPath1487">
      <path
   d="M 383.341,239.85 H 654.573 V 348.761 H 383.341 Z"
   transform="translate(-562.06124,-276.39561)"
   id="path1487" />
    </clipPath><clipPath
       id="clipPath1489">
      <path
   d="M 383.341,239.85 H 654.573 V 348.761 H 383.341 Z"
   transform="translate(-562.30184,-292.87221)"
   id="path1489" />
    </clipPath><clipPath
       id="clipPath1491">
      <path
   d="M 383.341,239.85 H 654.573 V 348.761 H 383.341 Z"
   transform="translate(-540.09389,-299.8653)"
   id="path1491" />
    </clipPath><clipPath
       id="clipPath1493">
      <path
   d="M 383.341,239.85 H 654.573 V 348.761 H 383.341 Z"
   transform="translate(-530.77799,-317.28511)"
   id="path1493" />
    </clipPath><clipPath
       id="clipPath1495">
      <path
   d="M 383.341,239.85 H 654.573 V 348.761 H 383.341 Z"
   transform="translate(-622.39072,-292.98681)"
   id="path1495" />
    </clipPath><clipPath
       id="clipPath1497">
      <path
   d="M 383.341,239.85 H 654.573 V 348.761 H 383.341 Z"
   transform="translate(-615.80399,-294.98111)"
   id="path1497" />
    </clipPath><clipPath
       id="clipPath1499">
      <path
   d="M 383.341,239.85 H 654.573 V 348.761 H 383.341 Z"
   transform="translate(-607.84409,-297.32051)"
   id="path1499" />
    </clipPath><clipPath
       id="clipPath1501">
      <path
   d="M 383.341,239.85 H 654.573 V 348.761 H 383.341 Z"
   transform="translate(-626.11372,-287.13791)"
   id="path1501" />
    </clipPath><clipPath
       id="clipPath1503">
      <path
   d="M 383.341,239.85 H 654.573 V 348.761 H 383.341 Z"
   transform="translate(-598.09394,-311.98721)"
   id="path1503" />
    </clipPath><clipPath
       id="clipPath1505">
      <path
   d="M 383.341,239.85 H 654.573 V 348.761 H 383.341 Z"
   transform="translate(-591.60411,-314.40061)"
   id="path1505" />
    </clipPath><clipPath
       id="clipPath1507">
      <path
   d="M 383.341,239.85 H 654.573 V 348.761 H 383.341 Z"
   transform="translate(-598.51889,-312.25941)"
   id="path1507" />
    </clipPath><clipPath
       id="clipPath1509">
      <path
   d="M 383.341,239.85 H 654.573 V 348.761 H 383.341 Z"
   transform="translate(-598.40541,-312.24041)"
   id="path1509" />
    </clipPath><clipPath
       id="clipPath1511">
      <path
   d="M 383.341,239.85 H 654.573 V 348.761 H 383.341 Z"
   transform="translate(-598.51889,-312.25941)"
   id="path1511" />
    </clipPath><clipPath
       id="clipPath1513">
      <path
   d="M 383.341,239.85 H 654.573 V 348.761 H 383.341 Z"
   transform="translate(-598.11989,-311.86641)"
   id="path1513" />
    </clipPath><clipPath
       id="clipPath1515">
      <path
   d="M 383.341,239.85 H 654.573 V 348.761 H 383.341 Z"
   transform="translate(-588.02894,-319.18241)"
   id="path1515" />
    </clipPath><clipPath
       id="clipPath1517">
      <path
   d="M 383.341,239.85 H 654.573 V 348.761 H 383.341 Z"
   transform="translate(-592.45574,-313.02041)"
   id="path1517" />
    </clipPath><clipPath
       id="clipPath1519">
      <path
   d="M 383.341,239.85 H 654.573 V 348.761 H 383.341 Z"
   transform="translate(-591.39621,-314.34951)"
   id="path1519" />
    </clipPath><clipPath
       id="clipPath1521">
      <path
   d="M 383.341,239.85 H 654.573 V 348.761 H 383.341 Z"
   transform="translate(-592.65704,-313.85221)"
   id="path1521" />
    </clipPath><clipPath
       id="clipPath1523">
      <path
   d="M 383.341,239.85 H 654.573 V 348.761 H 383.341 Z"
   transform="translate(-592.88181,-314.53611)"
   id="path1523" />
    </clipPath><clipPath
       id="clipPath1525">
      <path
   d="M 383.341,239.85 H 654.573 V 348.761 H 383.341 Z"
   transform="translate(-595.08981,-300.90521)"
   id="path1525" />
    </clipPath><clipPath
       id="clipPath1527">
      <path
   d="M 383.341,239.85 H 654.573 V 348.761 H 383.341 Z"
   transform="translate(-581.61914,-312.66951)"
   id="path1527" />
    </clipPath><clipPath
       id="clipPath1529">
      <path
   d="M 383.341,239.85 H 654.573 V 348.761 H 383.341 Z"
   transform="translate(-581.61914,-312.66951)"
   id="path1529" />
    </clipPath><clipPath
       id="clipPath1531">
      <path
   d="M 383.341,239.85 H 654.573 V 348.761 H 383.341 Z"
   transform="translate(-589.15559,-274.36901)"
   id="path1531" />
    </clipPath><clipPath
       id="clipPath1533">
      <path
   d="M 383.341,239.85 H 654.573 V 348.761 H 383.341 Z"
   transform="translate(-593.98964,-296.3892)"
   id="path1533" />
    </clipPath><clipPath
       id="clipPath1535">
      <path
   d="M 383.341,239.85 H 654.573 V 348.761 H 383.341 Z"
   transform="translate(-595.08981,-300.90521)"
   id="path1535" />
    </clipPath><clipPath
       id="clipPath1679">
      <path
   d="M 383.341,50 H 654.573 V 158.911 H 383.341 Z"
   transform="translate(-622.39072,-103.1367)"
   id="path1679" />
    </clipPath><clipPath
       id="clipPath1681">
      <path
   d="M 383.341,50 H 654.573 V 158.911 H 383.341 Z"
   transform="translate(-615.80399,-105.13091)"
   id="path1681" />
    </clipPath><clipPath
       id="clipPath1683">
      <path
   d="M 383.341,50 H 654.573 V 158.911 H 383.341 Z"
   transform="translate(-607.84409,-107.4704)"
   id="path1683" />
    </clipPath><clipPath
       id="clipPath1685">
      <path
   d="M 383.341,50 H 654.573 V 158.911 H 383.341 Z"
   transform="translate(-626.11372,-97.287802)"
   id="path1685" />
    </clipPath><clipPath
       id="clipPath1687">
      <path
   d="M 383.341,50 H 654.573 V 158.911 H 383.341 Z"
   transform="translate(-598.09394,-122.1371)"
   id="path1687" />
    </clipPath><clipPath
       id="clipPath1689">
      <path
   d="M 383.341,50 H 654.573 V 158.911 H 383.341 Z"
   transform="translate(-591.60411,-124.5504)"
   id="path1689" />
    </clipPath><clipPath
       id="clipPath1691">
      <path
   d="M 383.341,50 H 654.573 V 158.911 H 383.341 Z"
   transform="translate(-598.51889,-122.4092)"
   id="path1691" />
    </clipPath><clipPath
       id="clipPath1693">
      <path
   d="M 383.341,50 H 654.573 V 158.911 H 383.341 Z"
   transform="translate(-598.40541,-122.39021)"
   id="path1693" />
    </clipPath><clipPath
       id="clipPath1695">
      <path
   d="M 383.341,50 H 654.573 V 158.911 H 383.341 Z"
   transform="translate(-598.51889,-122.4092)"
   id="path1695" />
    </clipPath><clipPath
       id="clipPath1697">
      <path
   d="M 383.341,50 H 654.573 V 158.911 H 383.341 Z"
   transform="translate(-598.11989,-122.0163)"
   id="path1697" />
    </clipPath><clipPath
       id="clipPath1699">
      <path
   d="M 383.341,50 H 654.573 V 158.911 H 383.341 Z"
   transform="translate(-588.02894,-129.33221)"
   id="path1699" />
    </clipPath><clipPath
       id="clipPath1701">
      <path
   d="M 383.341,50 H 654.573 V 158.911 H 383.341 Z"
   transform="translate(-592.45574,-123.17021)"
   id="path1701" />
    </clipPath><clipPath
       id="clipPath1703">
      <path
   d="M 383.341,50 H 654.573 V 158.911 H 383.341 Z"
   transform="translate(-591.39621,-124.4994)"
   id="path1703" />
    </clipPath><clipPath
       id="clipPath1705">
      <path
   d="M 383.341,50 H 654.573 V 158.911 H 383.341 Z"
   transform="translate(-592.65704,-124.00211)"
   id="path1705" />
    </clipPath><clipPath
       id="clipPath1707">
      <path
   d="M 383.341,50 H 654.573 V 158.911 H 383.341 Z"
   transform="translate(-592.88181,-124.6857)"
   id="path1707" />
    </clipPath><clipPath
       id="clipPath1709">
      <path
   d="M 383.341,50 H 654.573 V 158.911 H 383.341 Z"
   transform="translate(-595.08981,-111.0551)"
   id="path1709" />
    </clipPath><clipPath
       id="clipPath1711">
      <path
   d="M 383.341,50 H 654.573 V 158.911 H 383.341 Z"
   transform="translate(-581.61914,-122.8193)"
   id="path1711" />
    </clipPath><clipPath
       id="clipPath1713">
      <path
   d="M 383.341,50 H 654.573 V 158.911 H 383.341 Z"
   transform="translate(-581.61914,-122.8193)"
   id="path1713" />
    </clipPath><clipPath
       id="clipPath1715">
      <path
   d="M 383.341,50 H 654.573 V 158.911 H 383.341 Z"
   transform="translate(-589.15559,-84.518902)"
   id="path1715" />
    </clipPath><clipPath
       id="clipPath1717">
      <path
   d="M 383.341,50 H 654.573 V 158.911 H 383.341 Z"
   transform="translate(-593.98964,-106.53911)"
   id="path1717" />
    </clipPath><clipPath
       id="clipPath1719">
      <path
   d="M 383.341,50 H 654.573 V 158.911 H 383.341 Z"
   transform="translate(-595.08981,-111.0551)"
   id="path1719" />
    </clipPath><linearGradient
       x1="0"
       y1="0"
       x2="1"
       y2="0"
       gradientUnits="userSpaceOnUse"
       gradientTransform="matrix(0,4.4715523,-4.4715523,0,2592.6448,455.31887)"
       spreadMethod="pad"
       id="linearGradient1722">
      <stop
   style="stop-opacity:1;stop-color:#edeced ;"
   offset="0"
   id="stop1719" />
      <stop
   style="stop-opacity:1;stop-color:#edeced ;"
   offset="0.0441586"
   id="stop1720" />
      <stop
   style="stop-opacity:1;stop-color:#ffffff ;"
   offset="0.990782"
   id="stop1721" />
      <stop
   style="stop-opacity:1;stop-color:#ffffff ;"
   offset="1"
   id="stop1722" />
    </linearGradient><linearGradient
       x1="0"
       y1="0"
       x2="1"
       y2="0"
       gradientUnits="userSpaceOnUse"
       gradientTransform="matrix(1.8885202,-5.1615761,5.0358598,1.4369407,2589.5104,459.71536)"
       spreadMethod="pad"
       id="linearGradient1726">
      <stop
   style="stop-opacity:1;stop-color:#edeced ;"
   offset="0"
   id="stop1723" />
      <stop
   style="stop-opacity:1;stop-color:#edeced ;"
   offset="0.0441586"
   id="stop1724" />
      <stop
   style="stop-opacity:1;stop-color:#ffffff ;"
   offset="0.990782"
   id="stop1725" />
      <stop
   style="stop-opacity:1;stop-color:#ffffff ;"
   offset="1"
   id="stop1726" />
    </linearGradient><clipPath
       id="clipPath1728">
      <path
   d="M 383.341,50 H 654.573 V 158.911 H 383.341 Z"
   transform="translate(-458.19621,-118.65971)"
   id="path1728" />
    </clipPath><clipPath
       id="clipPath1730">
      <path
   d="M 383.341,50 H 654.573 V 158.911 H 383.341 Z"
   transform="translate(-458.19621,-127.43441)"
   id="path1730" />
    </clipPath><clipPath
       id="clipPath1732">
      <path
   d="M 383.341,50 H 654.573 V 158.911 H 383.341 Z"
   transform="translate(-509.22749,-96.963502)"
   id="path1732" />
    </clipPath><clipPath
       id="clipPath1734">
      <path
   d="M 383.341,50 H 654.573 V 158.911 H 383.341 Z"
   transform="translate(-479.95844,-118.27061)"
   id="path1734" />
    </clipPath><linearGradient
       x1="0"
       y1="0"
       x2="1"
       y2="0"
       gradientUnits="userSpaceOnUse"
       gradientTransform="matrix(1.7639106,4.9317548,4.8151811,-1.3324381,2585.4493,455.55009)"
       spreadMethod="pad"
       id="linearGradient1737">
      <stop
   style="stop-opacity:1;stop-color:#edeced ;"
   offset="0"
   id="stop1734" />
      <stop
   style="stop-opacity:1;stop-color:#edeced ;"
   offset="0.0441586"
   id="stop1735" />
      <stop
   style="stop-opacity:1;stop-color:#ffffff ;"
   offset="0.990782"
   id="stop1736" />
      <stop
   style="stop-opacity:1;stop-color:#ffffff ;"
   offset="1"
   id="stop1737" />
    </linearGradient><linearGradient
       x1="0"
       y1="0"
       x2="1"
       y2="0"
       gradientUnits="userSpaceOnUse"
       gradientTransform="matrix(0,-7.3233368,7.3233368,0,2583.5885,465.14345)"
       spreadMethod="pad"
       id="linearGradient1741">
      <stop
   style="stop-opacity:1;stop-color:#edeced ;"
   offset="0"
   id="stop1738" />
      <stop
   style="stop-opacity:1;stop-color:#edeced ;"
   offset="0.0441586"
   id="stop1739" />
      <stop
   style="stop-opacity:1;stop-color:#ffffff ;"
   offset="0.990782"
   id="stop1740" />
      <stop
   style="stop-opacity:1;stop-color:#ffffff ;"
   offset="1"
   id="stop1741" />
    </linearGradient><clipPath
       id="clipPath1744">
      <path
   d="M 383.341,50 H 654.573 V 158.911 H 383.341 Z"
   transform="translate(-432.38459,-89.415105)"
   id="path1744" />
    </clipPath><clipPath
       id="clipPath1746">
      <path
   d="M 383.341,50 H 654.573 V 158.911 H 383.341 Z"
   transform="translate(-445.96199,-89.836305)"
   id="path1746" />
    </clipPath><clipPath
       id="clipPath1748">
      <path
   d="M 383.341,50 H 654.573 V 158.911 H 383.341 Z"
   transform="translate(-454.25519,-84.508005)"
   id="path1748" />
    </clipPath><clipPath
       id="clipPath1750">
      <path
   d="M 383.341,50 H 654.573 V 158.911 H 383.341 Z"
   transform="translate(-461.45339,-89.2953)"
   id="path1750" />
    </clipPath><clipPath
       id="clipPath1752">
      <path
   d="M 383.341,50 H 654.573 V 158.911 H 383.341 Z"
   transform="translate(-465.13229,-83.040105)"
   id="path1752" />
    </clipPath><clipPath
       id="clipPath1754">
      <path
   d="M 383.341,50 H 654.573 V 158.911 H 383.341 Z"
   transform="translate(-520.34954,-83.047702)"
   id="path1754" />
    </clipPath><clipPath
       id="clipPath1756">
      <path
   d="M 383.341,50 H 654.573 V 158.911 H 383.341 Z"
   transform="translate(-481.78304,-84.5406)"
   id="path1756" />
    </clipPath><clipPath
       id="clipPath1758">
      <path
   d="M 383.341,50 H 654.573 V 158.911 H 383.341 Z"
   transform="translate(-490.20809,-90.016905)"
   id="path1758" />
    </clipPath><clipPath
       id="clipPath1760">
      <path
   d="M 383.341,50 H 654.573 V 158.911 H 383.341 Z"
   transform="translate(-496.04211,-83.070502)"
   id="path1760" />
    </clipPath><clipPath
       id="clipPath1762">
      <path
   d="M 383.341,50 H 654.573 V 158.911 H 383.341 Z"
   transform="translate(-502.58594,-90.9729)"
   id="path1762" />
    </clipPath><clipPath
       id="clipPath1764">
      <path
   d="M 383.341,50 H 654.573 V 158.911 H 383.341 Z"
   transform="translate(-500.35619,-81.508905)"
   id="path1764" />
    </clipPath><clipPath
       id="clipPath1766">
      <path
   d="M 383.341,50 H 654.573 V 158.911 H 383.341 Z"
   transform="translate(-505.34819,-89.8026)"
   id="path1766" />
    </clipPath><clipPath
       id="clipPath1768">
      <path
   d="M 383.341,50 H 654.573 V 158.911 H 383.341 Z"
   transform="translate(-513.33344,-86.561505)"
   id="path1768" />
    </clipPath><clipPath
       id="clipPath1770">
      <path
   d="M 383.341,50 H 654.573 V 158.911 H 383.341 Z"
   transform="translate(-564.26924,-83.047702)"
   id="path1770" />
    </clipPath><clipPath
       id="clipPath1772">
      <path
   d="M 383.341,50 H 654.573 V 158.911 H 383.341 Z"
   transform="translate(-549.53309,-92.450002)"
   id="path1772" />
    </clipPath><clipPath
       id="clipPath1774">
      <path
   d="M 383.341,50 H 654.573 V 158.911 H 383.341 Z"
   transform="translate(-533.85014,-84.554205)"
   id="path1774" />
    </clipPath><clipPath
       id="clipPath1776">
      <path
   d="M 383.341,50 H 654.573 V 158.911 H 383.341 Z"
   transform="translate(-544.02809,-86.784502)"
   id="path1776" />
    </clipPath><clipPath
       id="clipPath1778">
      <path
   d="M 383.341,50 H 654.573 V 158.911 H 383.341 Z"
   transform="translate(-548.29581,-81.523605)"
   id="path1778" />
    </clipPath><clipPath
       id="clipPath1780">
      <path
   d="M 383.341,50 H 654.573 V 158.911 H 383.341 Z"
   transform="translate(-552.37664,-81.523605)"
   id="path1780" />
    </clipPath><clipPath
       id="clipPath1782">
      <path
   d="M 383.341,50 H 654.573 V 158.911 H 383.341 Z"
   transform="translate(-562.06124,-86.5452)"
   id="path1782" />
    </clipPath><clipPath
       id="clipPath1784">
      <path
   d="M 383.341,50 H 654.573 V 158.911 H 383.341 Z"
   transform="translate(-562.30184,-103.0221)"
   id="path1784" />
    </clipPath><clipPath
       id="clipPath1786">
      <path
   d="M 383.341,50 H 654.573 V 158.911 H 383.341 Z"
   transform="translate(-540.09389,-110.0151)"
   id="path1786" />
    </clipPath><clipPath
       id="clipPath1788">
      <path
   d="M 383.341,50 H 654.573 V 158.911 H 383.341 Z"
   transform="translate(-530.77799,-127.43471)"
   id="path1788" />
    </clipPath><clipPath
       id="clipPath546">
      <path
   d="m 535.495,49.839 h 116.133 v 51.007 H 535.495 Z"
   transform="translate(-576.10779,-79.060702)"
   id="path546" />
    </clipPath><clipPath
       id="clipPath548">
      <path
   d="m 535.495,49.839 h 116.133 v 51.007 H 535.495 Z"
   transform="translate(-576.10779,-83.816902)"
   id="path548" />
    </clipPath><clipPath
       id="clipPath550">
      <path
   d="m 535.495,49.839 h 116.133 v 51.007 H 535.495 Z"
   transform="translate(-603.76892,-67.300499)"
   id="path550" />
    </clipPath><clipPath
       id="clipPath552">
      <path
   d="m 535.495,49.839 h 116.133 v 51.007 H 535.495 Z"
   transform="translate(-587.90394,-78.849704)"
   id="path552" />
    </clipPath><clipPath
       id="clipPath554">
      <path
   d="m 535.495,49.839 h 116.133 v 51.007 H 535.495 Z"
   transform="translate(-570.51624,-83.342205)"
   id="path554" />
    </clipPath><clipPath
       id="clipPath556">
      <path
   d="m 535.495,49.839 h 116.133 v 51.007 H 535.495 Z"
   transform="translate(-632.53734,-70.584404)"
   id="path556" />
    </clipPath><clipPath
       id="clipPath558">
      <path
   d="m 535.495,49.839 h 116.133 v 51.007 H 535.495 Z"
   transform="translate(-620.49984,-74.375002)"
   id="path558" />
    </clipPath><clipPath
       id="clipPath560">
      <path
   d="m 535.495,49.839 h 116.133 v 51.007 H 535.495 Z"
   transform="translate(-615.45009,-83.817105)"
   id="path560" />
    </clipPath></defs><g
     inkscape:label="Ebene 1"
     inkscape:groupmode="layer"
     id="layer1"
     transform="translate(-81.205222,-222.90768)"><g
       inkscape:label="Layer 1"
       id="layer1-7"
       transform="translate(62.61755,164.85749)">
    <g
   inkscape:label="Layer 1"
   id="layer1-5"
   transform="translate(-17.909186,-11.20442)">
      
      <path
   id="path1680"
   d="m 0,0 c -4.67,2.56 -19.472,10.177 -8.751,12.732 0.411,0.097 0.859,0.187 1.347,0.27 -0.018,0.073 -0.051,0.14 -0.095,0.201 -0.06,-0.006 -0.12,-0.011 -0.178,-0.016 -0.37,-0.036 -0.72,-0.076 -1.057,-0.118 -11.268,-1.421 -4.333,-6.527 0.774,-10.73 6.162,-5.071 20.702,-18.882 -9.822,-24.855 -0.547,-0.351 -1.121,-0.704 -1.722,-1.058 -0.016,-0.01 -0.031,-0.019 -0.048,-0.028 l 0.023,-0.005 h 6.726 c 0.648,0.124 6.838,1.569 9.035,2.36 C 6.49,-17.178 12.513,-6.858 0,0"
   style="fill:#e47450;fill-opacity:1;fill-rule:nonzero;stroke:none"
   transform="matrix(0.95246569,0,0,-0.95246569,76.199702,94.137246)"
   clip-path="url(#clipPath1681)" />
      <path
   id="path1682"
   d="m 0,0 c -5.107,4.203 -12.042,9.309 -0.774,10.73 0.337,0.042 0.687,0.081 1.057,0.117 0.058,0.006 0.118,0.011 0.178,0.017 C 0.377,10.979 0.07,11.128 -0.278,11.127 -14.888,11.114 -7.882,4.33 -4.377,1.643 14.011,-12.456 0.96,-20.97 -8.4,-24.389 -8.824,-24.684 -9.832,-25.65 -10.292,-25.947 23.794,-17.483 6.162,-5.071 0,0"
   style="fill:#dd5021;fill-opacity:1;fill-rule:nonzero;stroke:none"
   transform="matrix(0.95246569,0,0,-0.95246569,68.618157,91.908963)"
   clip-path="url(#clipPath1683)" />
      <path
   id="path1684"
   d="m 0,0 c -2.569,9.677 -12.85,8.915 -19.566,15.245 -1.279,1.205 -3.154,3.018 1.38,4.899 0.541,0.224 0.475,0.688 0.472,0.701 -0.487,-0.083 -0.936,-0.173 -1.346,-0.27 -10.722,-2.555 4.009,-10.688 8.52,-13.52 11.658,-7.318 6.702,-15.934 -3.722,-20.105 -2.33,-0.932 -4.936,-1.699 -7.677,-2.313 -0.524,-0.134 -1.448,-0.307 -2.051,-0.399 h 2.006 C -12.678,-15.011 2.586,-9.743 0,0"
   style="fill:#f1b9a8;fill-opacity:1;fill-rule:nonzero;stroke:none"
   transform="matrix(0.95246569,0,0,-0.95246569,86.019365,101.60755)"
   clip-path="url(#clipPath1685)" />
      <path
   id="path1686"
   d="M 0,0 C 0.002,0.053 0.024,0.096 0.057,0.13 0.024,0.096 0.002,0.053 0,0"
   style="fill:#ececed;fill-opacity:1;fill-rule:nonzero;stroke:none"
   transform="matrix(0.95246569,0,0,-0.95246569,59.331481,77.939449)"
   clip-path="url(#clipPath1687)" />
      <path
   id="path1688"
   d="m 0,0 c 0.047,0.011 0.103,0.023 0.167,0.037 0.037,0.007 0.077,0.015 0.12,0.024 0.048,0.01 0.101,0.02 0.158,0.031 C 0.509,0.104 0.579,0.117 0.654,0.131 0.833,0.163 0.995,0.171 1.14,0.157 1.188,0.153 1.234,0.145 1.278,0.135 1.454,0.096 1.595,0.017 1.696,-0.1 1.673,-0.093 1.649,-0.087 1.624,-0.084 1.6,-0.08 1.575,-0.078 1.549,-0.078 1.412,-0.078 1.288,-0.131 1.198,-0.216 1.176,-0.238 1.156,-0.261 1.138,-0.286 1.084,-0.361 1.053,-0.451 1.053,-0.548 c 0,-0.13 0.055,-0.247 0.145,-0.333 0.09,-0.085 0.214,-0.137 0.351,-0.137 0.132,0 0.251,0.048 0.34,0.127 0.029,0.027 0.055,0.056 0.078,0.089 C 1.966,-0.836 1.959,-0.871 1.946,-0.906 1.933,-0.941 1.914,-0.975 1.89,-1.01 1.872,-1.035 1.852,-1.06 1.828,-1.085 1.668,-1.257 1.392,-1.395 1.129,-1.396 c -0.035,0 -0.069,10e-4 -0.102,0.002 -0.061,0.002 -0.12,0.007 -0.175,0.014 -0.388,0.049 -0.629,0.229 -0.844,0.717 -0.073,0.167 -0.144,0.367 -0.216,0.612 0,0 0.066,0.018 0.208,0.051 m -2.814,1.87 c -2.16,-0.404 -8.447,-3.261 -2.215,-9.417 1.741,-1.719 4.458,-3.696 8.514,-5.948 h 0.001 v 0 c -3.056,1.886 -4.986,4.714 -4.378,6.786 0.433,1.471 3.033,0.557 4.977,1.105 1.44,0.341 2.73,1.483 3.219,2.363 -0.079,0.051 -0.152,0.099 -0.218,0.145 -0.346,0.244 -0.511,0.426 -0.57,0.562 -0.009,0.019 -0.015,0.037 -0.019,0.055 -0.006,0.024 -0.008,0.045 -0.007,0.066 0.002,0.052 0.024,0.095 0.057,0.13 0.011,0.011 0.023,0.022 0.037,0.032 0.031,0.023 0.068,0.042 0.105,0.056 0.039,0.016 0.078,0.027 0.112,0.035 0.025,0.006 0.048,0.01 0.066,0.012 0.029,0.005 0.047,0.007 0.048,0.007 C 6.469,-1.706 5.897,-1.125 5.466,-0.684 5.108,-0.319 4.848,-0.05 4.841,-0.044 4.327,0.394 1.185,2.62 -2.814,1.87"
   style="fill:#a0cede;fill-opacity:1;fill-rule:nonzero;stroke:none"
   transform="matrix(0.95246569,0,0,-0.95246569,53.150152,75.640861)"
   clip-path="url(#clipPath1689)" />
      <path
   id="path1690"
   d="M 0,0 0.165,-0.009 C 0.114,-0.003 0.06,0.001 0,0"
   style="fill:#a4cddb;fill-opacity:1;fill-rule:nonzero;stroke:none"
   transform="matrix(0.95246569,0,0,-0.95246569,59.736226,77.68026)"
   clip-path="url(#clipPath1691)" />
      <path
   id="path1692"
   d="m 0,0 c -0.035,-0.008 -0.074,-0.019 -0.112,-0.034 -0.037,-0.015 -0.074,-0.034 -0.106,-0.057 -0.013,-0.01 -0.025,-0.02 -0.036,-0.032 -0.033,-0.034 -0.055,-0.078 -0.058,-0.13 0,-0.02 0.002,-0.042 0.007,-0.066 0.005,-0.017 0.011,-0.036 0.02,-0.055 0.058,-0.136 0.223,-0.318 0.57,-0.561 0.066,-0.046 0.138,-0.095 0.218,-0.146 0.315,0.567 0.298,1.024 -0.224,1.091 L 0.113,0.019 c 0,0 -0.018,-0.002 -0.047,-0.006 C 0.047,0.01 0.025,0.006 0,0"
   style="fill:#3e9cbc;fill-opacity:1;fill-rule:nonzero;stroke:none"
   transform="matrix(0.95246569,0,0,-0.95246569,59.628155,77.698373)"
   clip-path="url(#clipPath1693)" />
      <path
   id="path1694"
   d="M 0,0 C 0,0 -0.018,-0.002 -0.048,-0.006 -0.018,-0.002 0,0 0,0"
   style="fill:#4598b5;fill-opacity:1;fill-rule:nonzero;stroke:none"
   transform="matrix(0.95246569,0,0,-0.95246569,59.736226,77.68026)"
   clip-path="url(#clipPath1695)" />
      <path
   id="path1696"
   d="M 0,0 C 0.059,-0.136 0.224,-0.318 0.57,-0.561 0.224,-0.318 0.059,-0.136 0,0"
   style="fill:#4598b5;fill-opacity:1;fill-rule:nonzero;stroke:none"
   transform="matrix(0.95246569,0,0,-0.95246569,59.356193,78.054492)"
   clip-path="url(#clipPath1697)" />
      <path
   id="path1698"
   d="M 0,0 C -0.109,-0.117 -0.328,-0.346 -0.505,-0.55 0.248,-0.641 1.443,-0.821 2.747,-1.194 2.416,-0.096 1.754,1.88 0,0"
   style="fill:#0385ad;fill-opacity:1;fill-rule:nonzero;stroke:none"
   transform="matrix(0.95246569,0,0,-0.95246569,49.744914,71.08634)"
   clip-path="url(#clipPath1699)" />
      <path
   id="path1700"
   d="m 0,0 c 0.055,-0.007 0.114,-0.011 0.175,-0.014 0.033,-10e-4 0.067,-10e-4 0.102,-10e-4 0.263,0 0.539,0.138 0.7,0.31 C 1,0.32 1.02,0.345 1.038,0.371 1.062,0.405 1.081,0.44 1.094,0.474 1.107,0.509 1.114,0.544 1.115,0.578 1.093,0.546 1.067,0.516 1.037,0.489 0.948,0.41 0.829,0.362 0.697,0.362 0.56,0.362 0.436,0.414 0.346,0.499 0.257,0.585 0.201,0.702 0.201,0.832 0.201,0.929 0.232,1.02 0.286,1.095 0.304,1.119 0.324,1.143 0.346,1.164 0.436,1.249 0.56,1.302 0.697,1.302 0.723,1.302 0.748,1.3 0.773,1.296 0.797,1.293 0.821,1.288 0.845,1.28 0.744,1.397 0.602,1.477 0.426,1.515 0.382,1.525 0.336,1.533 0.288,1.537 0.144,1.552 -0.019,1.543 -0.197,1.511 -0.273,1.498 -0.342,1.485 -0.407,1.472 -0.464,1.462 -0.516,1.451 -0.565,1.441 -0.608,1.433 -0.647,1.424 -0.684,1.417 -0.749,1.403 -0.805,1.391 -0.852,1.38 -0.993,1.348 -1.06,1.329 -1.06,1.329 -0.988,1.084 -0.917,0.884 -0.844,0.717 -0.629,0.229 -0.388,0.049 0,0"
   style="fill:#0385ad;fill-opacity:1;fill-rule:nonzero;stroke:none"
   transform="matrix(0.95246569,0,0,-0.95246569,53.961269,76.955443)"
   clip-path="url(#clipPath1701)" />
      <path
   id="path1702"
   d="M 0,0 C 0.072,-0.246 0.143,-0.446 0.216,-0.612 0.143,-0.446 0.072,-0.245 0,0"
   style="fill:#0f80a5;fill-opacity:1;fill-rule:nonzero;stroke:none"
   transform="matrix(0.95246569,0,0,-0.95246569,52.952128,75.689432)"
   clip-path="url(#clipPath1703)" />
      <path
   id="path1704"
   d="M 0,0 C 0,-0.13 0.056,-0.248 0.145,-0.332 0.056,-0.247 0,-0.13 0,0"
   style="fill:#0f80a5;fill-opacity:1;fill-rule:nonzero;stroke:none"
   transform="matrix(0.95246569,0,0,-0.95246569,54.153012,76.163076)"
   clip-path="url(#clipPath1705)" />
      <path
   id="path1706"
   d="M 0,0 C 0.176,-0.039 0.318,-0.118 0.419,-0.235 0.318,-0.118 0.176,-0.039 0,0"
   style="fill:#0f80a5;fill-opacity:1;fill-rule:nonzero;stroke:none"
   transform="matrix(0.95246569,0,0,-0.95246569,54.367104,75.511994)"
   clip-path="url(#clipPath1707)" />
      <path
   id="path1708"
   d="M 0,0 Z"
   style="fill:#0f80a5;fill-opacity:1;fill-rule:nonzero;stroke:none"
   transform="matrix(0.95246569,0,0,-0.95246569,56.470146,88.494664)"
   clip-path="url(#clipPath1709)" />
      <path
   id="path1710"
   d="M 0,0 C 0.043,0.598 0.119,1.176 0.215,1.721 0.104,1.101 0.033,0.529 0,0"
   style="fill:#0f80a5;fill-opacity:1;fill-rule:nonzero;stroke:none"
   transform="matrix(0.95246569,0,0,-0.95246569,43.639778,77.289664)"
   clip-path="url(#clipPath1711)" />
      <path
   id="path1712"
   d="m 0,0 c -0.079,-1.06 0.316,-4.526 3.827,-7.227 1.02,-0.785 2.304,-1.505 3.919,-2.083 1.503,-0.537 3.292,-1.26 5.725,-2.454 v 0 c -4.057,2.252 -6.775,4.229 -8.515,5.948 -6.232,6.156 0.055,9.013 2.215,9.417 3.998,0.75 7.141,-1.475 7.656,-1.914 0.017,-0.015 0.032,-0.028 0.043,-0.039 0,0.001 0,0.001 0,0.001 C 13.586,3.643 11.233,4.726 9.156,5.319 7.852,5.692 6.658,5.872 5.905,5.963 5.398,6.024 5.092,6.045 5.087,6.058 3.375,10.856 1.865,7.132 1.385,5.788 1.333,5.641 0.236,3.177 0,0"
   style="fill:#3e9cbc;fill-opacity:1;fill-rule:nonzero;stroke:none"
   transform="matrix(0.95246569,0,0,-0.95246569,43.639778,77.289664)"
   clip-path="url(#clipPath1713)" />
      <path
   id="path1714"
   d="m 0,0 c 12.702,10.247 5.375,15.339 -3.96,23.715 -1.024,0.919 -1.828,1.77 -2.458,2.581 -1.488,1.917 -1.993,3.604 -2.082,5.412 -0.039,0.805 0.212,3.172 0.234,4.054 0,0.005 10e-4,0.01 10e-4,0.014 -0.044,-0.277 -0.088,-0.561 -0.131,-0.848 -0.116,-0.778 -0.227,-1.588 -0.327,-2.426 -0.573,-4.806 -0.781,-10.493 0.478,-15.87 0.025,-0.086 0.061,-0.147 0.103,-0.187 0.46,-0.445 1.84,1.607 2.547,2.708 0.237,0.369 0.738,0.459 1.085,0.191 2.128,-1.637 8.289,-7.489 1.415,-16.188 -1.202,-1.52 -2.798,-3.127 -4.888,-4.815 -0.55,-0.444 -0.238,-1.333 0.468,-1.333 l 5.373,-0.003 -1.924,0.004 C -2.528,-1.945 -1.178,-0.951 0,0"
   style="fill:#a0cede;fill-opacity:1;fill-rule:nonzero;stroke:none"
   transform="matrix(0.95246569,0,0,-0.95246569,50.818,113.76947)"
   clip-path="url(#clipPath1715)" />
      <path
   id="path1716"
   d="m 0,0 c -4.401,2.682 -7.763,4.709 -9.98,6.856 -2.053,1.988 -3.124,4.079 -3.12,6.886 -0.022,-0.882 -0.273,-3.249 -0.234,-4.054 0.089,-1.809 0.594,-3.495 2.082,-5.412 0.63,-0.811 1.434,-1.662 2.458,-2.582 9.335,-8.375 16.662,-13.467 3.96,-23.714 -1.178,-0.951 -2.528,-1.946 -4.066,-2.992 l 1.924,-0.003 h 4.84 c 0.269,0.194 0.529,0.389 0.786,0.583 C 11.091,-15.042 10.773,-6.564 0,0"
   style="fill:#3e9cbc;fill-opacity:1;fill-rule:nonzero;stroke:none"
   transform="matrix(0.95246569,0,0,-0.95246569,55.422274,92.795988)"
   clip-path="url(#clipPath1717)" />
      <path
   id="path1718"
   d="m 0,0 v 0 c -2.433,1.194 -4.222,1.917 -5.724,2.454 -1.615,0.578 -2.899,1.298 -3.92,2.083 -3.511,2.701 -3.893,6.166 -3.827,7.227 0.033,0.529 0.104,1.102 0.215,1.721 0.003,0.015 0.005,0.029 0.008,0.043 0.024,0.135 0.05,0.267 0.076,0.397 0.03,0.149 0.061,0.299 0.096,0.454 -0.47,-1.572 -0.945,-3.564 -1.124,-5.153 -0.004,-2.807 1.067,-4.898 3.119,-6.886 2.217,-2.147 5.58,-4.174 9.981,-6.856 10.772,-6.564 11.091,-15.042 -1.35,-24.432 -0.257,-0.194 -0.518,-0.388 -0.786,-0.583 h 5.672 c 0.002,10e-4 0.004,0.003 0.007,0.005 0.014,0.009 0.027,0.018 0.041,0.027 0.517,0.343 1.01,0.685 1.481,1.026 0.396,0.288 0.774,0.574 1.138,0.86 C 24.004,-12.756 0,0 0,0"
   style="fill:#0385ad;fill-opacity:1;fill-rule:nonzero;stroke:none"
   transform="matrix(0.95246569,0,0,-0.95246569,56.470146,88.494664)"
   clip-path="url(#clipPath1719)" />
      <g
   inkscape:label="Layer 1"
   id="layer1-2"
   transform="matrix(2.8259312,0,0,2.8259312,-222.61943,-349.94335)"
   style="fill:#2a2a2a;fill-opacity:1">
        <path
   id="path545"
   d="m 0,0 h -2.91 c -0.18,0 -0.326,-0.146 -0.326,-0.326 v -11.603 c 0,-0.179 0.146,-0.325 0.326,-0.325 H 0 c 0.18,0 0.326,0.146 0.326,0.325 V -0.326 C 0.326,-0.146 0.18,0 0,0"
   style="fill:#2a2a2a;fill-opacity:1;fill-rule:nonzero;stroke:none"
   transform="matrix(0.35277776,0,0,-0.35277776,120.49917,155.68383)"
   clip-path="url(#clipPath546)" />
        <path
   id="path547"
   d="m 0,0 h -2.91 c -0.18,0 -0.326,-0.146 -0.326,-0.325 v -2.138 c 0,-0.179 0.146,-0.325 0.326,-0.325 H 0 c 0.18,0 0.326,0.146 0.326,0.325 v 2.138 C 0.326,-0.146 0.18,0 0,0"
   style="fill:#2a2a2a;fill-opacity:1;fill-rule:nonzero;stroke:none"
   transform="matrix(0.35277776,0,0,-0.35277776,120.49917,154.00595)"
   clip-path="url(#clipPath548)" />
        <path
   id="path549"
   d="m 0,0 -4.458,7.379 3.683,3.806 c 0.2,0.206 0.054,0.552 -0.233,0.552 h -3.427 c -0.089,0 -0.175,-0.037 -0.236,-0.102 L -8.535,7.543 v 8.648 c 0,0.18 -0.146,0.326 -0.325,0.326 h -2.887 c -0.18,0 -0.326,-0.146 -0.326,-0.326 V -0.168 c 0,-0.18 0.146,-0.326 0.326,-0.326 h 2.863 c 0.18,0 0.326,0.146 0.326,0.326 v 3.493 l 1.546,1.453 3.045,-5.113 c 0.059,-0.099 0.165,-0.159 0.28,-0.159 h 3.408 c 0.254,0 0.41,0.277 0.279,0.494"
   style="fill:#2a2a2a;fill-opacity:1;fill-rule:nonzero;stroke:none"
   transform="matrix(0.35277776,0,0,-0.35277776,130.2574,159.83257)"
   clip-path="url(#clipPath550)" />
        <path
   id="path551"
   d="M 0,0 C -0.594,0.328 -1.32,0.492 -2.179,0.492 -2.937,0.492 -3.672,0.346 -4.383,0.056 -4.398,0.05 -4.412,0.044 -4.426,0.036 -4.81,-0.152 -5.209,-0.469 -5.623,-0.914 v 0.753 c 0,0.179 -0.146,0.325 -0.326,0.325 H -8.93 c -0.179,0 -0.325,-0.146 -0.325,-0.325 v -11.557 c 0,-0.179 0.146,-0.325 0.325,-0.325 h 2.958 c 0.18,0 0.325,0.146 0.325,0.325 v 6.282 c 0,0.406 0.004,0.715 0.012,0.925 0.008,0.211 0.043,0.477 0.105,0.797 0.062,0.32 0.156,0.559 0.282,0.715 0.125,0.156 0.316,0.296 0.573,0.422 0.258,0.125 0.566,0.187 0.926,0.187 0.812,0 1.351,-0.313 1.617,-0.937 0.109,-0.25 0.164,-0.859 0.164,-1.828 v -6.563 c 0,-0.179 0.146,-0.325 0.325,-0.325 h 2.934 c 0.18,0 0.326,0.146 0.326,0.325 v 8.04 c 0,0.999 -0.114,1.78 -0.34,2.343 C 1.05,-0.773 0.624,-0.328 0,0"
   style="fill:#2a2a2a;fill-opacity:1;fill-rule:nonzero;stroke:none"
   transform="matrix(0.35277776,0,0,-0.35277776,124.66059,155.75827)"
   clip-path="url(#clipPath552)" />
        <path
   id="path553"
   d="M 0,0 C 0.016,0.23 -0.132,0.475 -0.336,0.475 H -3.63 c -0.186,0 -0.334,-0.091 -0.389,-0.231 0,0 -2.904,-7.388 -4.913,-12.536 -1.939,5.149 -4.693,12.556 -4.693,12.556 -0.012,0.03 -0.029,0.057 -0.049,0.08 0.018,-0.015 0.034,-0.033 0.049,-0.054 -0.066,0.13 -0.086,0.222 -0.299,0.234 l -3.712,0.003 c -0.19,0 -0.345,-0.197 -0.345,-0.44 v -16.183 c 0,-0.243 0.155,-0.44 0.345,-0.44 h 3.086 c 0.19,0 0.345,0.197 0.345,0.44 v 8.77 l 3.325,-8.938 c 0.054,-0.143 0.188,-0.274 0.345,-0.274 l 3.031,-0.001 c 0,0 0.366,-0.009 0.478,0.253 0,0 10e-4,0.001 10e-4,0.001 l 0.01,0.026 v 0 l 3.239,8.696 v -8.533 c 0,-0.243 0.155,-0.44 0.346,-0.44 h 3.085 c 0.19,0 0.345,0.197 0.345,0.44 L 0,-0.047 C 0,-0.026 -0.003,-0.006 -0.005,0.014 -0.003,0.009 -0.001,0.005 0,0"
   style="fill:#2a2a2a;fill-opacity:1;fill-rule:nonzero;stroke:none"
   transform="matrix(0.35277776,0,0,-0.35277776,118.52659,154.17341)"
   clip-path="url(#clipPath554)" />
        <path
   id="path555"
   d="m 0,0 -0.117,-0.24 c -0.545,-1.119 -1.415,-1.663 -2.66,-1.663 -0.645,0 -1.201,0.14 -1.654,0.415 -0.459,0.278 -0.788,0.626 -1.008,1.066 -0.233,0.466 -0.398,0.929 -0.492,1.377 -0.095,0.452 -0.144,0.92 -0.144,1.389 0,1.329 0.327,2.38 0.972,3.124 0.64,0.739 1.439,1.099 2.442,1.099 0.542,0 1.074,-0.135 1.578,-0.401 0.49,-0.258 0.85,-0.666 1.098,-1.247 L 0.126,4.66 2.032,5.11 1.916,5.459 C 1.849,5.657 1.768,5.849 1.675,6.029 1.582,6.206 1.421,6.448 1.184,6.768 0.942,7.094 0.66,7.375 0.348,7.603 0.035,7.831 -0.385,8.033 -0.9,8.205 c -0.519,0.173 -1.096,0.26 -1.715,0.26 -1.632,0 -2.992,-0.565 -4.04,-1.679 -1.043,-1.109 -1.573,-2.627 -1.573,-4.512 0,-1.642 0.456,-3.069 1.354,-4.242 0.919,-1.201 2.282,-1.81 4.051,-1.81 1.586,0 2.868,0.511 3.813,1.522 0.311,0.345 0.617,0.814 0.907,1.395 l 0.191,0.382 z"
   style="fill:#5b5b5b;fill-opacity:1;fill-rule:nonzero;stroke:none"
   transform="matrix(0.35277776,0,0,-0.35277776,140.40626,158.67408)"
   clip-path="url(#clipPath556)"
   sodipodi:nodetypes="ccscscscscccccccccscscscccc" />
        <path
   id="path557"
   d="m 0,0 h -6.207 c 0.154,0.794 0.485,1.443 0.989,1.934 v 0 c 0.58,0.567 1.287,0.842 2.161,0.842 0.832,0 1.507,-0.244 2.059,-0.74 C -0.496,1.559 -0.161,0.875 0,0 m 0.368,-3.541 c -0.717,-1.432 -1.777,-2.129 -3.24,-2.129 -1.543,0 -2.554,0.672 -3.088,2.051 -0.211,0.559 -0.322,1.175 -0.33,1.836 h 8.557 l 0.01,0.326 c 0.049,1.615 -0.403,3.05 -1.343,4.266 -0.957,1.238 -2.293,1.866 -3.968,1.866 -1.508,0 -2.803,-0.549 -3.852,-1.63 -1.045,-1.078 -1.576,-2.558 -1.576,-4.399 0,-1.737 0.472,-3.216 1.403,-4.397 0.95,-1.206 2.358,-1.817 4.187,-1.817 1.647,0 2.998,0.549 4.025,1.642 0.452,0.517 0.822,1.108 1.097,1.756 l 0.151,0.354 -1.91,0.521 z"
   style="fill:#5b5b5b;fill-opacity:1;fill-rule:nonzero;stroke:none"
   transform="matrix(0.35277776,0,0,-0.35277776,136.1597,157.33684)"
   clip-path="url(#clipPath558)"
   sodipodi:nodetypes="ccssscccsccccsscscsccccc" />
        <path
   id="path559"
   d="m 0,0 h -13.102 v -2.037 h 5.428 v -14.974 h 2.223 V -2.037 H 0 Z"
   style="fill:#5b5b5b;fill-opacity:1;fill-rule:nonzero;stroke:none"
   transform="matrix(0.35277776,0,0,-0.35277776,134.37826,154.00588)"
   clip-path="url(#clipPath560)"
   sodipodi:nodetypes="ccccccccc" />
      </g>
    </g>
  </g></g></svg>
